<?xml version="1.0" encoding="UTF-8" standalone="no"?>
<!DOCTYPE svg PUBLIC "-//W3C//DTD SVG 1.1//EN"
 "http://www.w3.org/Graphics/SVG/1.1/DTD/svg11.dtd">
<!-- Generated by graphviz version 2.43.0 (0)
 -->
<!-- Title: InkfishSchema Pages: 1 -->
<svg width="940pt" height="481pt"
 viewBox="0.00 0.00 940.00 481.00" xmlns="http://www.w3.org/2000/svg" xmlns:xlink="http://www.w3.org/1999/xlink">
<g id="graph0" class="graph" transform="scale(1 1) rotate(0) translate(4 477)">
<title>InkfishSchema</title>
<polygon fill="white" stroke="transparent" points="-4,4 -4,-477 936,-477 936,4 -4,4"/>
<g id="clust1" class="cluster">
<title>cluster_course</title>
<path fill="#f1f5f9" stroke="#f1f5f9" d="M244,-336C244,-336 912,-336 912,-336 918,-336 924,-342 924,-348 924,-348 924,-453 924,-453 924,-459 918,-465 912,-465 912,-465 244,-465 244,-465 238,-465 232,-459 232,-453 232,-453 232,-348 232,-348 232,-342 238,-336 244,-336"/>
<text text-anchor="middle" x="578" y="-449.8" font-family="Times,serif" font-size="14.00">Course &amp; Team Management</text>
</g>
<g id="clust2" class="cluster">
<title>cluster_user</title>
<path fill="#f1f5f9" stroke="#f1f5f9" d="M646,-145C646,-145 911.5,-145 911.5,-145 917.5,-145 923.5,-151 923.5,-157 923.5,-157 923.5,-316 923.5,-316 923.5,-322 917.5,-328 911.5,-328 911.5,-328 646,-328 646,-328 640,-328 634,-322 634,-316 634,-316 634,-157 634,-157 634,-151 640,-145 646,-145"/>
<text text-anchor="middle" x="778.75" y="-312.8" font-family="Times,serif" font-size="14.00">Users &amp; Registrations</text>
</g>
<g id="clust3" class="cluster">
<title>cluster_assignment</title>
<path fill="#f1f5f9" stroke="#f1f5f9" d="M20,-149C20,-149 459,-149 459,-149 465,-149 471,-155 471,-161 471,-161 471,-266 471,-266 471,-272 465,-278 459,-278 459,-278 20,-278 20,-278 14,-278 8,-272 8,-266 8,-266 8,-161 8,-161 8,-155 14,-149 20,-149"/>
<text text-anchor="middle" x="239.5" y="-262.8" font-family="Times,serif" font-size="14.00">Assignments &amp; Grading</text>
</g>
<g id="clust4" class="cluster">
<title>cluster_support</title>
<path fill="#f1f5f9" stroke="#f1f5f9" d="M617,-8C617,-8 729,-8 729,-8 735,-8 741,-14 741,-20 741,-20 741,-125 741,-125 741,-131 735,-137 729,-137 729,-137 617,-137 617,-137 611,-137 605,-131 605,-125 605,-125 605,-20 605,-20 605,-14 611,-8 617,-8"/>
<text text-anchor="middle" x="673" y="-121.8" font-family="Times,serif" font-size="14.00">Supporting Resources</text>
</g>
<!-- Course -->
<g id="node1" class="node">
<title>Course</title>
<path fill="#fef08a" stroke="black" d="M904,-380C904,-380 873,-380 873,-380 867,-380 861,-374 861,-368 861,-368 861,-356 861,-356 861,-350 867,-344 873,-344 873,-344 904,-344 904,-344 910,-344 916,-350 916,-356 916,-356 916,-368 916,-368 916,-374 910,-380 904,-380"/>
<text text-anchor="middle" x="888.5" y="-358.3" font-family="Times,serif" font-size="14.00">Course</text>
</g>
<!-- User -->
<g id="node2" class="node">
<title>User</title>
<path fill="#fef08a" stroke="black" d="M903.5,-189C903.5,-189 873.5,-189 873.5,-189 867.5,-189 861.5,-183 861.5,-177 861.5,-177 861.5,-165 861.5,-165 861.5,-159 867.5,-153 873.5,-153 873.5,-153 903.5,-153 903.5,-153 909.5,-153 915.5,-159 915.5,-165 915.5,-165 915.5,-177 915.5,-177 915.5,-183 909.5,-189 903.5,-189"/>
<text text-anchor="middle" x="888.5" y="-167.3" font-family="Times,serif" font-size="14.00">User</text>
</g>
<!-- Upload -->
<g id="node10" class="node">
<title>Upload</title>
<path fill="#e0f2fe" stroke="black" d="M688.5,-52C688.5,-52 656.5,-52 656.5,-52 650.5,-52 644.5,-46 644.5,-40 644.5,-40 644.5,-28 644.5,-28 644.5,-22 650.5,-16 656.5,-16 656.5,-16 688.5,-16 688.5,-16 694.5,-16 700.5,-22 700.5,-28 700.5,-28 700.5,-40 700.5,-40 700.5,-46 694.5,-52 688.5,-52"/>
<text text-anchor="middle" x="672.5" y="-30.3" font-family="Times,serif" font-size="14.00">Upload</text>
</g>
<!-- User&#45;&gt;Upload -->
<g id="edge10" class="edge">
<title>User&#45;&gt;Upload</title>
<path fill="none" stroke="#94a3b8" stroke-dasharray="5,2" d="M880,-152.79C880,-116.79 880,-40 880,-40 880,-40 710.92,-40 710.92,-40"/>
<polygon fill="#94a3b8" stroke="#94a3b8" points="710.92,-36.5 700.92,-40 710.92,-43.5 710.92,-36.5"/>
<text text-anchor="middle" x="797" y="-132.8" font-family="Times,serif" font-size="14.00">photo_upload_id</text>
</g>
<!-- Assignment -->
<g id="node3" class="node">
<title>Assignment</title>
<path fill="#dcfce7" stroke="black" d="M451,-247C451,-247 393,-247 393,-247 387,-247 381,-241 381,-235 381,-235 381,-223 381,-223 381,-217 387,-211 393,-211 393,-211 451,-211 451,-211 457,-211 463,-217 463,-223 463,-223 463,-235 463,-235 463,-241 457,-247 451,-247"/>
<text text-anchor="middle" x="422" y="-225.3" font-family="Times,serif" font-size="14.00">Assignment</text>
</g>
<!-- Bucket -->
<g id="node6" class="node">
<title>Bucket</title>
<path fill="#e0f2fe" stroke="black" d="M688,-434C688,-434 657,-434 657,-434 651,-434 645,-428 645,-422 645,-422 645,-410 645,-410 645,-404 651,-398 657,-398 657,-398 688,-398 688,-398 694,-398 700,-404 700,-410 700,-410 700,-422 700,-422 700,-428 694,-434 688,-434"/>
<text text-anchor="middle" x="672.5" y="-412.3" font-family="Times,serif" font-size="14.00">Bucket</text>
</g>
<!-- Assignment&#45;&gt;Bucket -->
<g id="edge11" class="edge">
<title>Assignment&#45;&gt;Bucket</title>
<path fill="none" stroke="#3b82f6" d="M454,-247.27C454,-294.32 454,-416 454,-416 454,-416 634.83,-416 634.83,-416"/>
<polygon fill="#3b82f6" stroke="#3b82f6" points="634.83,-419.5 644.83,-416 634.83,-412.5 634.83,-419.5"/>
</g>
<!-- Teamset -->
<g id="node7" class="node">
<title>Teamset</title>
<path fill="#e0f2fe" stroke="black" d="M692,-380C692,-380 653,-380 653,-380 647,-380 641,-374 641,-368 641,-368 641,-356 641,-356 641,-350 647,-344 653,-344 653,-344 692,-344 692,-344 698,-344 704,-350 704,-356 704,-356 704,-368 704,-368 704,-374 698,-380 692,-380"/>
<text text-anchor="middle" x="672.5" y="-358.3" font-family="Times,serif" font-size="14.00">Teamset</text>
</g>
<!-- Assignment&#45;&gt;Teamset -->
<g id="edge12" class="edge">
<title>Assignment&#45;&gt;Teamset</title>
<path fill="none" stroke="#3b82f6" d="M459,-247.2C459,-282.31 459,-356 459,-356 459,-356 631,-356 631,-356"/>
<polygon fill="#3b82f6" stroke="#3b82f6" points="631,-359.5 641,-356 631,-352.5 631,-359.5"/>
</g>
<!-- Assignment&#45;&gt;Upload -->
<g id="edge13" class="edge">
<title>Assignment&#45;&gt;Upload</title>
<path fill="none" stroke="#94a3b8" stroke-dasharray="5,2" d="M409,-210.99C409,-163.35 409,-37.6 409,-37.6 409,-37.6 634.3,-37.6 634.3,-37.6"/>
<polygon fill="#94a3b8" stroke="#94a3b8" points="634.3,-41.1 644.3,-37.6 634.3,-34.1 634.3,-41.1"/>
<text text-anchor="middle" x="542.5" y="-199.8" font-family="Times,serif" font-size="14.00">starter_upload_id</text>
</g>
<!-- Assignment&#45;&gt;Upload -->
<g id="edge14" class="edge">
<title>Assignment&#45;&gt;Upload</title>
<path fill="none" stroke="#94a3b8" stroke-dasharray="5,2" d="M436,-210.66C436,-164.07 436,-44.8 436,-44.8 436,-44.8 634.44,-44.8 634.44,-44.8"/>
<polygon fill="#94a3b8" stroke="#94a3b8" points="634.44,-48.3 644.44,-44.8 634.44,-41.3 634.44,-48.3"/>
<text text-anchor="middle" x="542.5" y="-100.8" font-family="Times,serif" font-size="14.00">solution_upload_id</text>
</g>
<!-- Sub -->
<g id="node4" class="node">
<title>Sub</title>
<path fill="#dcfce7" stroke="black" d="M302.5,-247C302.5,-247 272.5,-247 272.5,-247 266.5,-247 260.5,-241 260.5,-235 260.5,-235 260.5,-223 260.5,-223 260.5,-217 266.5,-211 272.5,-211 272.5,-211 302.5,-211 302.5,-211 308.5,-211 314.5,-217 314.5,-223 314.5,-223 314.5,-235 314.5,-235 314.5,-241 308.5,-247 302.5,-247"/>
<text text-anchor="middle" x="287.5" y="-225.3" font-family="Times,serif" font-size="14.00">Sub</text>
</g>
<!-- Sub&#45;&gt;Assignment -->
<g id="edge18" class="edge">
<title>Sub&#45;&gt;Assignment</title>
<path fill="none" stroke="#3b82f6" d="M314.72,-232.6C314.72,-232.6 370.77,-232.6 370.77,-232.6"/>
<polygon fill="#3b82f6" stroke="#3b82f6" points="370.77,-236.1 380.77,-232.6 370.77,-229.1 370.77,-236.1"/>
</g>
<!-- Reg -->
<g id="node8" class="node">
<title>Reg</title>
<path fill="#e0f2fe" stroke="black" d="M687.5,-243C687.5,-243 657.5,-243 657.5,-243 651.5,-243 645.5,-237 645.5,-231 645.5,-231 645.5,-219 645.5,-219 645.5,-213 651.5,-207 657.5,-207 657.5,-207 687.5,-207 687.5,-207 693.5,-207 699.5,-213 699.5,-219 699.5,-219 699.5,-231 699.5,-231 699.5,-237 693.5,-243 687.5,-243"/>
<text text-anchor="middle" x="672.5" y="-221.3" font-family="Times,serif" font-size="14.00">Reg</text>
</g>
<!-- Sub&#45;&gt;Reg -->
<g id="edge20" class="edge">
<title>Sub&#45;&gt;Reg</title>
<path fill="none" stroke="#3b82f6" d="M297,-247.14C297,-249.16 297,-250.5 297,-250.5 297,-250.5 659,-250.5 659,-250.5 659,-250.5 659,-249.78 659,-249.78"/>
<polygon fill="#3b82f6" stroke="#3b82f6" points="662.5,-253.26 659,-243.26 655.5,-253.26 662.5,-253.26"/>
<text text-anchor="middle" x="422" y="-130.8" font-family="Times,serif" font-size="14.00">reg_id (submitter)</text>
</g>
<!-- Sub&#45;&gt;Reg -->
<g id="edge21" class="edge">
<title>Sub&#45;&gt;Reg</title>
<path fill="none" stroke="#94a3b8" stroke-dasharray="5,2" d="M279,-247.17C279,-251.05 279,-254 279,-254 279,-254 673,-254 673,-254 673,-254 673,-252.92 673,-252.92"/>
<polygon fill="#94a3b8" stroke="#94a3b8" points="676.5,-253.2 673,-243.2 669.5,-253.2 676.5,-253.2"/>
<text text-anchor="middle" x="422" y="-181.8" font-family="Times,serif" font-size="14.00">grader_id</text>
</g>
<!-- Sub&#45;&gt;Upload -->
<g id="edge22" class="edge">
<title>Sub&#45;&gt;Upload</title>
<path fill="none" stroke="#3b82f6" d="M314.8,-218.2C332.01,-218.2 351,-218.2 351,-218.2 351,-218.2 351,-30.4 351,-30.4 351,-30.4 634.25,-30.4 634.25,-30.4"/>
<polygon fill="#3b82f6" stroke="#3b82f6" points="634.25,-33.9 644.25,-30.4 634.25,-26.9 634.25,-33.9"/>
</g>
<!-- Team -->
<g id="node13" class="node">
<title>Team</title>
<path fill="#e0f2fe" stroke="black" d="M437,-380C437,-380 407,-380 407,-380 401,-380 395,-374 395,-368 395,-368 395,-356 395,-356 395,-350 401,-344 407,-344 407,-344 437,-344 437,-344 443,-344 449,-350 449,-356 449,-356 449,-368 449,-368 449,-374 443,-380 437,-380"/>
<text text-anchor="middle" x="422" y="-358.3" font-family="Times,serif" font-size="14.00">Team</text>
</g>
<!-- Sub&#45;&gt;Team -->
<g id="edge19" class="edge">
<title>Sub&#45;&gt;Team</title>
<path fill="none" stroke="#3b82f6" d="M314.52,-239.8C337.22,-239.8 366,-239.8 366,-239.8 366,-239.8 366,-356 366,-356 366,-356 384.98,-356 384.98,-356"/>
<polygon fill="#3b82f6" stroke="#3b82f6" points="384.98,-359.5 394.98,-356 384.98,-352.5 384.98,-359.5"/>
</g>
<!-- DockerTag -->
<g id="node5" class="node">
<title>DockerTag</title>
<path fill="#f3f4f6" stroke="black" d="M699,-106C699,-106 646,-106 646,-106 640,-106 634,-100 634,-94 634,-94 634,-82 634,-82 634,-76 640,-70 646,-70 646,-70 699,-70 699,-70 705,-70 711,-76 711,-82 711,-82 711,-94 711,-94 711,-100 705,-106 699,-106"/>
<text text-anchor="middle" x="672.5" y="-84.3" font-family="Times,serif" font-size="14.00">DockerTag</text>
</g>
<!-- Bucket&#45;&gt;Course -->
<g id="edge1" class="edge">
<title>Bucket&#45;&gt;Course</title>
<path fill="none" stroke="#3b82f6" d="M700.36,-416C758.83,-416 889,-416 889,-416 889,-416 889,-390.28 889,-390.28"/>
<polygon fill="#3b82f6" stroke="#3b82f6" points="892.5,-390.28 889,-380.28 885.5,-390.28 892.5,-390.28"/>
</g>
<!-- Teamset&#45;&gt;Course -->
<g id="edge2" class="edge">
<title>Teamset&#45;&gt;Course</title>
<path fill="none" stroke="#3b82f6" d="M704.37,-362C704.37,-362 850.95,-362 850.95,-362"/>
<polygon fill="#3b82f6" stroke="#3b82f6" points="850.95,-365.5 860.95,-362 850.95,-358.5 850.95,-365.5"/>
</g>
<!-- Reg&#45;&gt;Course -->
<g id="edge3" class="edge">
<title>Reg&#45;&gt;Course</title>
<path fill="none" stroke="#3b82f6" d="M699.92,-231C758.18,-231 889,-231 889,-231 889,-231 889,-333.79 889,-333.79"/>
<polygon fill="#3b82f6" stroke="#3b82f6" points="885.5,-333.78 889,-343.79 892.5,-333.79 885.5,-333.78"/>
</g>
<!-- Reg&#45;&gt;User -->
<g id="edge5" class="edge">
<title>Reg&#45;&gt;User</title>
<path fill="none" stroke="#3b82f6" d="M699.7,-219C759.68,-219 898,-219 898,-219 898,-219 898,-199.15 898,-199.15"/>
<polygon fill="#3b82f6" stroke="#3b82f6" points="901.5,-199.15 898,-189.15 894.5,-199.15 901.5,-199.15"/>
</g>
<!-- JoinReq -->
<g id="node9" class="node">
<title>JoinReq</title>
<path fill="#e0f2fe" stroke="black" d="M691,-297C691,-297 654,-297 654,-297 648,-297 642,-291 642,-285 642,-285 642,-273 642,-273 642,-267 648,-261 654,-261 654,-261 691,-261 691,-261 697,-261 703,-267 703,-273 703,-273 703,-285 703,-285 703,-291 697,-297 691,-297"/>
<text text-anchor="middle" x="672.5" y="-275.3" font-family="Times,serif" font-size="14.00">JoinReq</text>
</g>
<!-- JoinReq&#45;&gt;Course -->
<g id="edge4" class="edge">
<title>JoinReq&#45;&gt;Course</title>
<path fill="none" stroke="#3b82f6" d="M703.12,-285C760.84,-285 880,-285 880,-285 880,-285 880,-333.75 880,-333.75"/>
<polygon fill="#3b82f6" stroke="#3b82f6" points="876.5,-333.75 880,-343.75 883.5,-333.75 876.5,-333.75"/>
</g>
<!-- JoinReq&#45;&gt;User -->
<g id="edge6" class="edge">
<title>JoinReq&#45;&gt;User</title>
<path fill="none" stroke="#3b82f6" d="M703.16,-273C766.72,-273 907,-273 907,-273 907,-273 907,-199.24 907,-199.24"/>
<polygon fill="#3b82f6" stroke="#3b82f6" points="910.5,-199.24 907,-189.24 903.5,-199.24 910.5,-199.24"/>
</g>
<!-- Upload&#45;&gt;User -->
<g id="edge7" class="edge">
<title>Upload&#45;&gt;User</title>
<path fill="none" stroke="#3b82f6" d="M700.6,-28C761.05,-28 898,-28 898,-28 898,-28 898,-142.89 898,-142.89"/>
<polygon fill="#3b82f6" stroke="#3b82f6" points="894.5,-142.89 898,-152.89 901.5,-142.89 894.5,-142.89"/>
</g>
<!-- ApiKey -->
<g id="node11" class="node">
<title>ApiKey</title>
<path fill="#e0f2fe" stroke="black" d="M690,-189C690,-189 655,-189 655,-189 649,-189 643,-183 643,-177 643,-177 643,-165 643,-165 643,-159 649,-153 655,-153 655,-153 690,-153 690,-153 696,-153 702,-159 702,-165 702,-165 702,-177 702,-177 702,-183 696,-189 690,-189"/>
<text text-anchor="middle" x="672.5" y="-167.3" font-family="Times,serif" font-size="14.00">ApiKey</text>
</g>
<!-- ApiKey&#45;&gt;User -->
<g id="edge8" class="edge">
<title>ApiKey&#45;&gt;User</title>
<path fill="none" stroke="#3b82f6" d="M702.08,-171C702.08,-171 851.32,-171 851.32,-171"/>
<polygon fill="#3b82f6" stroke="#3b82f6" points="851.32,-174.5 861.32,-171 851.32,-167.5 851.32,-174.5"/>
</g>
<!-- LineComment -->
<g id="node12" class="node">
<title>LineComment</title>
<path fill="#e0f2fe" stroke="black" d="M100,-193C100,-193 28,-193 28,-193 22,-193 16,-187 16,-181 16,-181 16,-169 16,-169 16,-163 22,-157 28,-157 28,-157 100,-157 100,-157 106,-157 112,-163 112,-169 112,-169 112,-181 112,-181 112,-187 106,-193 100,-193"/>
<text text-anchor="middle" x="64" y="-171.3" font-family="Times,serif" font-size="14.00">LineComment</text>
</g>
<!-- LineComment&#45;&gt;User -->
<g id="edge9" class="edge">
<title>LineComment&#45;&gt;User</title>
<path fill="none" stroke="#3b82f6" d="M64,-193.17C64,-197.05 64,-200 64,-200 64,-200 871,-200 871,-200 871,-200 871,-198.92 871,-198.92"/>
<polygon fill="#3b82f6" stroke="#3b82f6" points="874.5,-199.2 871,-189.2 867.5,-199.2 874.5,-199.2"/>
</g>
<!-- Grade -->
<g id="node16" class="node">
<title>Grade</title>
<path fill="#e0f2fe" stroke="black" d="M191,-193C191,-193 161,-193 161,-193 155,-193 149,-187 149,-181 149,-181 149,-169 149,-169 149,-163 155,-157 161,-157 161,-157 191,-157 191,-157 197,-157 203,-163 203,-169 203,-169 203,-181 203,-181 203,-187 197,-193 191,-193"/>
<text text-anchor="middle" x="176" y="-171.3" font-family="Times,serif" font-size="14.00">Grade</text>
</g>
<!-- LineComment&#45;&gt;Grade -->
<g id="edge27" class="edge">
<title>LineComment&#45;&gt;Grade</title>
<path fill="none" stroke="#3b82f6" d="M112.15,-175C112.15,-175 138.87,-175 138.87,-175"/>
<polygon fill="#3b82f6" stroke="#3b82f6" points="138.87,-178.5 148.87,-175 138.87,-171.5 138.87,-178.5"/>
</g>
<!-- Team&#45;&gt;Teamset -->
<g id="edge15" class="edge">
<title>Team&#45;&gt;Teamset</title>
<path fill="none" stroke="#3b82f6" d="M449.28,-368C449.28,-368 630.94,-368 630.94,-368"/>
<polygon fill="#3b82f6" stroke="#3b82f6" points="630.94,-371.5 640.94,-368 630.94,-364.5 630.94,-371.5"/>
</g>
<!-- TeamMember -->
<g id="node14" class="node">
<title>TeamMember</title>
<path fill="#e0f2fe" stroke="black" d="M323,-380C323,-380 252,-380 252,-380 246,-380 240,-374 240,-368 240,-368 240,-356 240,-356 240,-350 246,-344 252,-344 252,-344 323,-344 323,-344 329,-344 335,-350 335,-356 335,-356 335,-368 335,-368 335,-374 329,-380 323,-380"/>
<text text-anchor="middle" x="287.5" y="-358.3" font-family="Times,serif" font-size="14.00">TeamMember</text>
</g>
<!-- TeamMember&#45;&gt;Reg -->
<g id="edge17" class="edge">
<title>TeamMember&#45;&gt;Reg</title>
<path fill="none" stroke="#3b82f6" d="M322,-343.8C322,-313.86 322,-257.5 322,-257.5 322,-257.5 686,-257.5 686,-257.5 686,-257.5 686,-253.15 686,-253.15"/>
<polygon fill="#3b82f6" stroke="#3b82f6" points="689.5,-253.15 686,-243.15 682.5,-253.15 689.5,-253.15"/>
</g>
<!-- TeamMember&#45;&gt;Team -->
<g id="edge16" class="edge">
<title>TeamMember&#45;&gt;Team</title>
<path fill="none" stroke="#3b82f6" d="M335.3,-368C335.3,-368 384.71,-368 384.71,-368"/>
<polygon fill="#3b82f6" stroke="#3b82f6" points="384.71,-371.5 394.71,-368 384.71,-364.5 384.71,-371.5"/>
</g>
<!-- GradeColumn -->
<g id="node15" class="node">
<title>GradeColumn</title>
<path fill="#e0f2fe" stroke="black" d="M322.5,-193C322.5,-193 252.5,-193 252.5,-193 246.5,-193 240.5,-187 240.5,-181 240.5,-181 240.5,-169 240.5,-169 240.5,-163 246.5,-157 252.5,-157 252.5,-157 322.5,-157 322.5,-157 328.5,-157 334.5,-163 334.5,-169 334.5,-169 334.5,-181 334.5,-181 334.5,-187 328.5,-193 322.5,-193"/>
<text text-anchor="middle" x="287.5" y="-171.3" font-family="Times,serif" font-size="14.00">GradeColumn</text>
</g>
<!-- GradeColumn&#45;&gt;Assignment -->
<g id="edge23" class="edge">
<title>GradeColumn&#45;&gt;Assignment</title>
<path fill="none" stroke="#3b82f6" d="M328,-193.2C328,-207.63 328,-225.4 328,-225.4 328,-225.4 370.77,-225.4 370.77,-225.4"/>
<polygon fill="#3b82f6" stroke="#3b82f6" points="370.77,-228.9 380.77,-225.4 370.77,-221.9 370.77,-228.9"/>
</g>
<!-- GradeColumn&#45;&gt;Upload -->
<g id="edge24" class="edge">
<title>GradeColumn&#45;&gt;Upload</title>
<path fill="none" stroke="#94a3b8" stroke-dasharray="5,2" d="M288,-156.99C288,-116.78 288,-23.2 288,-23.2 288,-23.2 634.23,-23.2 634.23,-23.2"/>
<polygon fill="#94a3b8" stroke="#94a3b8" points="634.23,-26.7 644.23,-23.2 634.23,-19.7 634.23,-26.7"/>
</g>
<!-- Grade&#45;&gt;Sub -->
<g id="edge25" class="edge">
<title>Grade&#45;&gt;Sub</title>
<path fill="none" stroke="#3b82f6" d="M203.02,-169C213.04,-169 222,-169 222,-169 222,-169 222,-223 222,-223 222,-223 250.48,-223 250.48,-223"/>
<polygon fill="#3b82f6" stroke="#3b82f6" points="250.48,-226.5 260.48,-223 250.48,-219.5 250.48,-226.5"/>
</g>
<!-- Grade&#45;&gt;GradeColumn -->
<g id="edge26" class="edge">
<title>Grade&#45;&gt;GradeColumn</title>
<path fill="none" stroke="#3b82f6" d="M203.28,-181C203.28,-181 230.08,-181 230.08,-181"/>
<polygon fill="#3b82f6" stroke="#3b82f6" points="230.08,-184.5 240.08,-181 230.07,-177.5 230.08,-184.5"/>
</g>
<!-- AgJob -->
<g id="node17" class="node">
<title>AgJob</title>
<path fill="#e0f2fe" stroke="black" d="M191,-247C191,-247 161,-247 161,-247 155,-247 149,-241 149,-235 149,-235 149,-223 149,-223 149,-217 155,-211 161,-211 161,-211 191,-211 191,-211 197,-211 203,-217 203,-223 203,-223 203,-235 203,-235 203,-241 197,-247 191,-247"/>
<text text-anchor="middle" x="176" y="-225.3" font-family="Times,serif" font-size="14.00">AgJob</text>
</g>
<!-- AgJob&#45;&gt;Sub -->
<g id="edge28" class="edge">
<title>AgJob&#45;&gt;Sub</title>
<path fill="none" stroke="#3b82f6" d="M203.28,-235C203.28,-235 250.12,-235 250.12,-235"/>
<polygon fill="#3b82f6" stroke="#3b82f6" points="250.12,-238.5 260.12,-235 250.12,-231.5 250.12,-238.5"/>
</g>
</g>
</svg>
